<svg width="63" height="53" viewBox="0 0 63 53" fill="none" xmlns="http://www.w3.org/2000/svg">
<path d="M63 6.96606C60.6572 7.99375 58.1608 8.67494 55.5581 9.00569C58.2356 7.40706 60.2792 4.89494 61.2399 1.867C58.7436 3.35537 55.9873 4.40669 53.0499 4.99338C50.6796 2.46944 47.3012 0.90625 43.6157 0.90625C36.4652 0.90625 30.7086 6.71013 30.7086 13.8252C30.7086 14.8489 30.7952 15.8333 31.0078 16.7704C20.2703 16.2467 10.7691 11.1004 4.38637 3.26088C3.27206 5.19419 2.61844 7.40706 2.61844 9.78925C2.61844 14.2622 4.92188 18.2273 8.35538 20.5229C6.28031 20.4835 4.24463 19.8811 2.52 18.9321C2.52 18.9715 2.52 19.0227 2.52 19.0739C2.52 25.3503 6.99694 30.5635 12.8677 31.7644C11.8164 32.0519 10.6706 32.1897 9.4815 32.1897C8.65462 32.1897 7.81987 32.1424 7.03631 31.9692C8.70975 37.084 13.4584 40.8443 19.1048 40.9664C14.7105 44.4038 9.13106 46.4749 3.09094 46.4749C2.03175 46.4749 1.01587 46.4277 0 46.2977C5.72119 49.9872 12.5016 52.0938 19.8135 52.0938C43.5802 52.0938 56.574 32.4062 56.574 15.3411C56.574 14.7702 56.5543 14.2189 56.5267 13.6716C59.0901 11.8525 61.2439 9.58056 63 6.96606Z" fill="#00AEFF"/>
</svg>
