<svg width="1600" height="2420" viewBox="0 0 1600 2420" fill="none" xmlns="http://www.w3.org/2000/svg">
<path d="M779.388 653.22C802.672 562.703 951.89 589.911 1091.01 475.538C1211.5 376.461 1178.16 290.421 1288.85 240.035C1369.7 203.207 1479.17 205.685 1566.73 261.706C1663.28 323.468 1689.15 422.649 1694.71 447.08C1719.72 556.605 1674.64 643.594 1658.44 673.704C1591.7 797.713 1469.73 842.978 1411.24 864.721C1191.47 946.328 893.884 909.388 802.899 752.661C790.968 732.152 768.884 694.09 779.388 653.22Z" fill="url(#paint0_linear)"/>
<path d="M147.052 2018.51H130.56V2152.7" stroke="#DFDFDF" stroke-width="4" stroke-miterlimit="10"/>
<path d="M325.272 2001.95H178.317V2284.97H325.272V2001.95Z" fill="#F3F3F3"/>
<path d="M178.72 2001.95H144.538V2284.97H178.72V2001.95Z" fill="#DFDFDF"/>
<path d="M179.246 2293.44C146.077 2293.44 89.4839 2242.82 89.4839 2200.78C89.4839 2197.58 91.0015 2191.55 94.3503 2191.55C112.455 2191.52 179.246 2245.49 179.246 2293.44Z" fill="#56CAD8"/>
<path d="M399.119 1925.36V2110.07H409.72" stroke="#DFDFDF" stroke-width="4" stroke-miterlimit="10"/>
<path d="M574.007 2312.78L537.618 2251.55" stroke="#ED7562" stroke-width="4" stroke-linecap="round" stroke-linejoin="round"/>
<path d="M589.788 2312.78L553.399 2251.55" stroke="#ED7562" stroke-width="4" stroke-linecap="round" stroke-linejoin="round"/>
<path d="M473.627 2312.78L510.01 2251.55" stroke="#ED7562" stroke-width="4" stroke-linecap="round" stroke-linejoin="round"/>
<path d="M557.28 2122.53H611.079L574.948 2253.47H483.287V2248.81H551.266L557.28 2122.53Z" fill="#ED7562"/>
<path d="M477.306 2308.06L467.107 2309.64L468.525 2318.76L478.723 2317.17L477.306 2308.06Z" fill="#DE8E68"/>
<path d="M417.262 2302.29L408.606 2296.67L403.583 2304.4L412.238 2310.03L417.262 2302.29Z" fill="#DE8E68"/>
<path d="M451.205 2208.47C443.673 2208.47 406.08 2295.99 406.08 2299.19C406.08 2302.38 414.239 2306.01 415.443 2306.01C417.319 2304.27 453.305 2252.25 457.051 2248.62C460.798 2244.99 451.205 2208.47 451.205 2208.47Z" fill="#56CAD8"/>
<path d="M511.024 2144.19C508.549 2144.97 496.464 2155.33 494.353 2167.76C492.202 2167.51 479.3 2166.97 473.924 2166.75C472.166 2164.01 468.464 2162.11 464.169 2162.11C458.182 2162.11 453.327 2165.79 453.327 2170.33C453.327 2170.43 453.327 2170.53 453.327 2170.63H474.971C474.971 2170.53 474.971 2170.43 474.971 2170.33C474.964 2169.18 474.655 2168.06 474.075 2167.07L492.88 2170.07L515.218 2172.39L517.52 2152.88L511.024 2144.19Z" fill="#D37C59"/>
<path d="M529.571 2130.33C529.571 2128.76 525.651 2126.97 522.773 2126.97C515.089 2126.97 502.092 2140.97 502.092 2142.73C502.092 2144.49 511.449 2152.32 518.64 2152.79C525.83 2153.26 529.571 2130.33 529.571 2130.33Z" fill="#FCC486"/>
<path d="M548.656 2119.11C592.084 2119.11 582.161 2217.22 576.656 2221.36C571.151 2225.51 522.896 2225.89 519.755 2221.74C516.613 2217.6 497.119 2119.11 548.656 2119.11Z" fill="#FED385"/>
<path d="M556.289 2100.35H538.929V2123.6C538.929 2127.29 556.289 2127.32 556.289 2123.6V2100.35Z" fill="#D37C59"/>
<path d="M561.231 2091.54C563.45 2077.62 557.662 2065.14 548.303 2063.64C538.945 2062.15 529.561 2072.22 527.342 2086.13C525.124 2100.04 530.912 2112.53 540.27 2114.02C549.628 2115.52 559.013 2105.45 561.231 2091.54Z" fill="#DE8E68"/>
<path d="M585 2051.24C593.4 2051.24 601.8 2055.72 612.44 2055.72C620.84 2055.72 628.68 2052.36 638.76 2052.36C656.68 2052.36 662.28 2064.12 662.28 2071.4C662.28 2089.88 647.16 2097.16 635.96 2097.16C618.04 2097.16 615.8 2084.84 594.52 2084.84C573.8 2084.84 576.6 2068.04 572.12 2068.04C569.88 2068.04 568.48 2068.32 567.64 2069.16C566.8 2070 562.6 2066.92 562.6 2065.8C562.6 2064.68 568.2 2051.24 585 2051.24Z" fill="black"/>
<path d="M547.48 2057.4C527.673 2057.4 523.529 2072.47 523.529 2076.82C523.529 2081.17 526.278 2084.4 527.684 2084.5C528.558 2079.3 532.724 2072.12 532.92 2071.96C534.04 2073.08 538.19 2076.68 542.44 2077C545.981 2077.18 549.418 2078.25 552.436 2080.11C552.686 2081.56 553.231 2082.94 554.038 2084.17C555.184 2086.01 556.914 2087.42 558.954 2088.17C559.452 2089.42 559.738 2090.75 559.8 2092.09C559.8 2098.07 559.24 2100.49 558.68 2102.17C567.808 2102.17 572.12 2092.77 572.12 2080.89C572.12 2061.34 554.816 2057.4 547.48 2057.4Z" fill="black"/>
<path d="M559.772 2097.05C562.444 2097.05 564.61 2094.88 564.61 2092.21C564.61 2089.54 562.444 2087.37 559.772 2087.37C557.1 2087.37 554.934 2089.54 554.934 2092.21C554.934 2094.88 557.1 2097.05 559.772 2097.05Z" fill="#DE8E68"/>
<path d="M543.56 2155.33C541.606 2155.8 533.771 2160.65 529.073 2169.03C524.453 2168.17 505.659 2163.47 488.977 2163.47C487.409 2163.47 483.338 2162.18 481.697 2162.18C471.914 2162.18 469.87 2167.47 469.87 2169.03C469.87 2170.59 470.206 2170.64 470.508 2170.64C504.108 2170.64 512.558 2184.81 531.458 2184.81C537.574 2184.81 550.179 2180.38 557.778 2169.04C555.113 2160 543.56 2155.33 543.56 2155.33Z" fill="#DE8E68"/>
<path d="M576.589 2136.23C587.083 2146.42 560.545 2174.61 556.289 2174.2C552.033 2173.78 536.689 2157.63 536.543 2152.72C536.397 2147.81 566.447 2126.38 576.589 2136.23Z" fill="#FED892"/>
<path d="M598.16 2171.89H361.151V2179.54H598.16V2171.89Z" fill="#FD8369"/>
<path d="M576.561 2226.24C576.561 2223.83 576.981 2221.04 575.48 2220.42C539.853 2205.73 487.695 2203.83 479.659 2203.83C471.623 2203.83 448.125 2204.65 448.125 2211.37C448.125 2235.66 461.66 2310.45 464.41 2313.25C465.715 2314.56 477.094 2313.68 478.511 2312.26C478.415 2306.1 481.994 2244.23 478.729 2236.73C508.672 2247.71 542.675 2252.91 551.635 2252.91C577.603 2252.88 576.561 2229.1 576.561 2226.24Z" fill="#74D5DE"/>
<path d="M413.091 2308.87L404.053 2302.85L379.726 2297.75L377.414 2301.57L406.08 2319.3L413.091 2308.87Z" fill="black"/>
<path d="M479.569 2314.76L468.845 2316.45L447.492 2329.17L448.377 2333.56L481.473 2327.19L479.569 2314.76Z" fill="black"/>
<path d="M585.426 2293.62V2177.4" stroke="#FD8369" stroke-width="4" stroke-linecap="round" stroke-linejoin="round"/>
<path d="M388.501 2293.62V2177.4" stroke="#FD8369" stroke-width="4" stroke-linecap="round" stroke-linejoin="round"/>
<path d="M568.782 2316.92V2177.4" stroke="#FD8369" stroke-width="4" stroke-linecap="round" stroke-linejoin="round"/>
<path d="M370.917 2316.92V2177.4" stroke="#FD8369" stroke-width="4" stroke-linecap="round" stroke-linejoin="round"/>
<path d="M489.817 2312.78L526.2 2251.55" stroke="#ED7562" stroke-width="4" stroke-linecap="round" stroke-linejoin="round"/>
<path d="M487.476 2170.49H448.125V2171.89H487.476V2170.49Z" fill="#74D5DE"/>
<path d="M490.388 2078.88H404.473V2141.27H490.388V2078.88Z" fill="#74D5DE"/>
<path d="M435.362 2129.53L423.513 2171.89H444.283L455.785 2129.53H435.362Z" fill="#56CAD8"/>
<path d="M452.106 1928.37C456.231 1924.34 458.836 1919 459.482 1913.27C460.128 1907.53 458.774 1901.75 455.65 1896.9C452.526 1892.05 447.823 1888.43 442.336 1886.64C436.849 1884.86 430.914 1885.02 425.534 1887.11C422.094 1881.84 417.286 1877.6 411.624 1874.85C405.962 1872.1 399.659 1870.94 393.389 1871.5C387.119 1872.06 381.119 1874.31 376.029 1878.01C370.939 1881.71 366.952 1886.73 364.494 1892.52C359.65 1890.57 354.315 1890.17 349.235 1891.39C344.155 1892.62 339.586 1895.4 336.166 1899.35C332.746 1903.3 330.646 1908.22 330.162 1913.42C329.678 1918.63 330.832 1923.85 333.465 1928.36L452.106 1928.37Z" fill="#DFDFDF"/>
<path d="M390.372 1923.63V1963.79H267.133V2001.95" stroke="#DFDFDF" stroke-width="4" stroke-miterlimit="10"/>
<path d="M198.029 2316.92C201.305 2316.92 207.689 2305.82 207.689 2284.29C207.689 2268.55 196.657 2258.37 193.381 2242.77C188.341 2218.85 163.382 2148.6 124.411 2148.6C119.931 2148.6 113.917 2158.01 113.917 2177.4C113.917 2200.92 136.698 2225.28 136.698 2230.33C136.72 2288 187.585 2316.92 198.029 2316.92Z" fill="#74D5DE"/>
<path d="M198.281 2316.92C198.281 2313.76 193.723 2292.61 191.354 2287.32C188.985 2282.04 179.683 2255.6 178.227 2248.3C176.771 2241.01 149.785 2169.72 124.439 2151.67" stroke="#8BDDE4" stroke-width="3" stroke-linecap="round" stroke-linejoin="round"/>
<path d="M186.649 2274.88L144.134 2266.22" stroke="#8BDDE4" stroke-width="3" stroke-linecap="round" stroke-linejoin="round"/>
<path d="M188.789 2280.78L149.852 2277.54" stroke="#8BDDE4" stroke-width="3" stroke-linecap="round" stroke-linejoin="round"/>
<path d="M176.536 2242.79L137.017 2230.83" stroke="#8BDDE4" stroke-width="3" stroke-linecap="round" stroke-linejoin="round"/>
<path d="M180.299 2255.89L192.362 2247.12" stroke="#8BDDE4" stroke-width="3" stroke-linecap="round" stroke-linejoin="round"/>
<path d="M157.462 2198.27L169.379 2184.76" stroke="#8BDDE4" stroke-width="3" stroke-linecap="round" stroke-linejoin="round"/>
<path d="M153.738 2191.08L163.88 2177.32" stroke="#8BDDE4" stroke-width="3" stroke-linecap="round" stroke-linejoin="round"/>
<path d="M313.092 2019.86H190.491V2043.49H313.092V2019.86Z" fill="#DFDFDF"/>
<path d="M304.289 2032.85C306.577 2032.85 308.433 2030.99 308.433 2028.71C308.433 2026.42 306.577 2024.56 304.289 2024.56C302 2024.56 300.145 2026.42 300.145 2028.71C300.145 2030.99 302 2032.85 304.289 2032.85Z" fill="#F3F3F3"/>
<path d="M232.827 2028.71H296.656" stroke="#F3F3F3" stroke-width="4" stroke-linecap="round" stroke-linejoin="round"/>
<path d="M313.092 2059.81H190.491V2083.44H313.092V2059.81Z" fill="#DFDFDF"/>
<path d="M304.289 2072.8C306.577 2072.8 308.433 2070.94 308.433 2068.66C308.433 2066.37 306.577 2064.51 304.289 2064.51C302 2064.51 300.145 2066.37 300.145 2068.66C300.145 2070.94 302 2072.8 304.289 2072.8Z" fill="#F3F3F3"/>
<path d="M232.827 2068.66H296.656" stroke="#F3F3F3" stroke-width="4" stroke-linecap="round" stroke-linejoin="round"/>
<path d="M313.092 2099.75H190.491V2123.38H313.092V2099.75Z" fill="#DFDFDF"/>
<path d="M304.289 2112.74C306.577 2112.74 308.433 2110.89 308.433 2108.6C308.433 2106.31 306.577 2104.46 304.289 2104.46C302 2104.46 300.145 2106.31 300.145 2108.6C300.145 2110.89 302 2112.74 304.289 2112.74Z" fill="#F3F3F3"/>
<path d="M232.827 2108.6H296.656" stroke="#F3F3F3" stroke-width="4" stroke-linecap="round" stroke-linejoin="round"/>
<path d="M313.092 2139.7H190.491V2163.34H313.092V2139.7Z" fill="#DFDFDF"/>
<path d="M304.289 2152.7C306.577 2152.7 308.433 2150.84 308.433 2148.55C308.433 2146.26 306.577 2144.41 304.289 2144.41C302 2144.41 300.145 2146.26 300.145 2148.55C300.145 2150.84 302 2152.7 304.289 2152.7Z" fill="#F3F3F3"/>
<path d="M232.827 2148.55H296.656" stroke="#F3F3F3" stroke-width="4" stroke-linecap="round" stroke-linejoin="round"/>
<path d="M313.092 2179.65H190.491V2203.28H313.092V2179.65Z" fill="#DFDFDF"/>
<path d="M304.289 2192.65C306.577 2192.65 308.433 2190.79 308.433 2188.5C308.433 2186.21 306.577 2184.36 304.289 2184.36C302 2184.36 300.145 2186.21 300.145 2188.5C300.145 2190.79 302 2192.65 304.289 2192.65Z" fill="#F3F3F3"/>
<path d="M232.827 2188.5H296.656" stroke="#F3F3F3" stroke-width="4" stroke-linecap="round" stroke-linejoin="round"/>
<path d="M152.434 2036.86H170.824" stroke="#F3F3F3" stroke-width="2" stroke-linecap="round" stroke-linejoin="round"/>
<path d="M152.434 2041.62H170.824" stroke="#F3F3F3" stroke-width="2" stroke-linecap="round" stroke-linejoin="round"/>
<path d="M152.434 2069.24H170.824" stroke="#F3F3F3" stroke-width="2" stroke-linecap="round" stroke-linejoin="round"/>
<path d="M152.434 2074H170.824" stroke="#F3F3F3" stroke-width="2" stroke-linecap="round" stroke-linejoin="round"/>
<path d="M152.434 2108.6H170.824" stroke="#F3F3F3" stroke-width="2" stroke-linecap="round" stroke-linejoin="round"/>
<path d="M152.434 2113.37H170.824" stroke="#F3F3F3" stroke-width="2" stroke-linecap="round" stroke-linejoin="round"/>
<path d="M152.434 2146.68H170.824" stroke="#F3F3F3" stroke-width="2" stroke-linecap="round" stroke-linejoin="round"/>
<path d="M152.434 2151.45H170.824" stroke="#F3F3F3" stroke-width="2" stroke-linecap="round" stroke-linejoin="round"/>
<path d="M1379.39 266.434H915.116V724.071H1379.39V266.434Z" fill="#F3F3F3"/>
<path d="M1379.39 266.434H915.116V301.269H1379.39V266.434Z" fill="#E1E1E1"/>
<path d="M939.615 289.785C942.645 289.785 945.102 287.328 945.102 284.298C945.102 281.268 942.645 278.811 939.615 278.811C936.585 278.811 934.128 281.268 934.128 284.298C934.128 287.328 936.585 289.785 939.615 289.785Z" fill="#FD8369"/>
<path d="M957.288 289.785C960.318 289.785 962.775 287.328 962.775 284.298C962.775 281.268 960.318 278.811 957.288 278.811C954.258 278.811 951.801 281.268 951.801 284.298C951.801 287.328 954.258 289.785 957.288 289.785Z" fill="#FD8369"/>
<path d="M974.96 289.785C977.991 289.785 980.447 287.328 980.447 284.298C980.447 281.268 977.991 278.811 974.96 278.811C971.93 278.811 969.474 281.268 969.474 284.298C969.474 287.328 971.93 289.785 974.96 289.785Z" fill="#FD8369"/>
<path d="M1123.42 326.661H937.829V427.21H1123.42V326.661Z" fill="white"/>
<path d="M1123.42 451.071H937.829V551.62H1123.42V451.071Z" fill="white"/>
<path d="M1354.19 451.071H1168.59V667.927H1354.19V451.071Z" fill="white"/>
<path d="M1410.46 333.934H1155.64V343.632H1410.46V333.934Z" fill="#E1E1E1"/>
<path d="M1410.46 361.305H1155.64V371.002H1410.46V361.305Z" fill="#E1E1E1"/>
<path d="M1410.46 388.675H1155.64V398.372H1410.46V388.675Z" fill="#E1E1E1"/>
<path d="M1410.46 416.045H1155.64V425.743H1410.46V416.045Z" fill="#E1E1E1"/>
<path d="M1294.92 721.456H1285.16V736.257H1294.92V721.456Z" fill="#DE8E68"/>
<path d="M1409.95 783.98H1400.19V798.781H1409.95V783.98Z" fill="#DE8E68"/>
<path d="M1356.8 584.477C1345 584.477 1292.3 636.857 1287.71 645.661C1283.11 654.466 1284.45 723.433 1284.45 723.433L1295.81 725.603L1314.25 661.356C1322.29 660.399 1356.1 653.126 1373.58 639.026C1391.06 624.862 1371.92 593.281 1371.92 593.281L1356.8 584.477Z" fill="#6FC9CE"/>
<path d="M1337.09 513.34C1331.28 518.508 1319.67 531.459 1318.71 533.118C1315.78 531.714 1285.22 515.637 1282.92 514.616C1280.63 513.595 1275.78 505.493 1274.12 505.493C1273.16 505.493 1272.27 507.343 1272.27 508.619C1272.27 510.788 1273.29 512.447 1273.93 513.149C1271.76 512.83 1252.62 511.362 1252.62 512.638C1252.62 515.956 1274.05 520.358 1275.71 521.251C1277.37 522.144 1312.27 554.427 1324.39 554.427C1329.11 554.427 1349.98 540.264 1349.98 538.732C1351.95 537.393 1355.02 535.415 1355.02 535.415V524.186L1347.74 518.891C1347.74 518.827 1338.24 512.319 1337.09 513.34Z" fill="#DE8E68"/>
<path d="M1336.32 509.64C1337.6 499.304 1361.4 475.826 1372.31 486.289C1381.81 495.412 1364.59 528.014 1360.18 529.29C1355.21 529.8 1336 516.658 1336.32 509.64Z" fill="#FEBF92"/>
<path d="M1408.93 488.139C1421.05 483.035 1438.02 511.107 1436.11 521.315C1436.11 525.781 1411.23 535.351 1407.4 532.799C1403.57 530.247 1396.81 493.243 1408.93 488.139Z" fill="#FED892"/>
<path d="M1360.06 589.007L1400.12 783.916H1410.4L1414.03 610.061C1414.03 607.062 1413.78 588.177 1413.78 585.753C1402.17 589.134 1377.41 591.814 1360.06 589.007Z" fill="#74D5DE"/>
<path d="M1400.19 798.781H1409.95V809.372H1383.03L1400.19 798.781Z" fill="black"/>
<path d="M1285.16 736.257H1294.92V746.848H1267.99L1285.16 736.257Z" fill="black"/>
<path d="M1342.7 746.848H1226.52V814.859H1342.7V746.848Z" fill="#FD8369"/>
<path d="M1382.39 473.146C1412.37 473.146 1422.84 498.092 1422.84 506.194C1422.84 514.297 1413.46 563.742 1413.84 585.753C1413.9 589.39 1360.06 592.643 1352.72 587.348C1349.28 584.86 1341.87 473.146 1382.39 473.146Z" fill="#FECC92"/>
<path d="M1436.11 521.315C1444.59 534.33 1444.08 564.316 1444.08 568.846C1444.08 573.376 1412.44 614.08 1409.69 614.08C1408.03 612.421 1403.44 607.381 1403.44 605.85C1404.91 603.17 1423.73 562.019 1427.11 559.085C1425.58 557.234 1412.12 536.117 1411.54 532.608C1423.35 530.63 1434.77 525.653 1436.11 521.315Z" fill="#DE8E68"/>
<path d="M1436.11 521.315C1438.02 511.107 1422.52 481.504 1408.93 488.139C1397.13 493.945 1403.57 530.247 1407.4 532.799C1411.99 534.777 1434.32 528.078 1436.11 521.315Z" fill="#FED892"/>
<path d="M1374.73 467.021C1374.09 468.999 1373.77 475.124 1374.48 477.867C1374.54 477.995 1387.24 478.952 1388.64 476.719C1388.7 474.869 1391.77 458.408 1395.91 453.304C1396.3 452.73 1395.47 451.135 1395.47 451.135L1380.73 457.26L1374.73 467.021Z" fill="#D38466"/>
<path d="M1393.81 452.539C1394.76 453.815 1395.98 454.389 1397.06 454.389C1399.49 454.389 1405.1 452.156 1405.1 444.181C1405.1 438.439 1399.49 435.504 1399.49 432.761C1399.49 430.145 1400.19 430.081 1400.19 427.912C1400.19 426.827 1399.1 423.254 1395.72 423.254C1393.81 423.254 1393.11 424.849 1391.19 424.849C1389.09 424.849 1387.17 420.766 1383.98 420.766C1381.81 420.766 1379.77 422.808 1377.48 422.808C1374.86 422.808 1373.07 418.916 1369.44 418.916C1365.67 418.916 1364.33 422.297 1362.86 422.297C1361.01 422.297 1360.7 421.787 1358.85 421.787C1357.7 421.787 1354.19 423.829 1354.19 427.529C1354.19 430.145 1355.27 434.419 1360.7 434.419C1363.89 434.419 1365.67 439.46 1368.48 439.46C1369.56 439.46 1370.52 438.566 1370.78 439.013C1371.86 440.927 1374.09 446.159 1374.09 446.159L1384.24 451.837L1393.81 452.539Z" fill="#FD8369"/>
<path d="M1391.57 449.923C1391.57 450.816 1391.26 451.007 1389.92 451.007C1389.28 451.007 1388.38 450.178 1388.38 449.285C1388.38 447.179 1389.92 446.733 1389.92 443.989C1389.92 439.332 1377.73 436.908 1373.46 434.483C1371.92 436.014 1370.84 437.992 1370.39 440.225L1367.65 454.325C1366.44 460.45 1370.46 466.383 1376.52 467.595C1382.58 468.808 1388.58 464.788 1389.79 458.727L1390.23 456.303C1390.49 456.367 1390.75 456.43 1390.94 456.43C1392.53 456.43 1393.74 454.963 1393.74 453.177C1393.87 451.518 1391.57 448.583 1391.57 449.923Z" fill="#DE8E68"/>
<circle cx="1446" cy="275" r="36" fill="#24116A"/>
<circle cx="956" cy="871" r="56" fill="white"/>
<circle cx="956" cy="871" r="56" fill="white"/>
<defs>
<linearGradient id="paint0_linear" x1="1173.81" y1="135.107" x2="1280.68" y2="871.051" gradientUnits="userSpaceOnUse">
<stop stop-color="#F3F7FF"/>
<stop offset="1" stop-color="#B3D9FF"/>
</linearGradient>
</defs>
</svg>
